<?xml version="1.0" standalone="no"?><!DOCTYPE svg PUBLIC "-//W3C//DTD SVG 1.1//EN" "http://www.w3.org/Graphics/SVG/1.1/DTD/svg11.dtd"><svg t="1784271190280" class="icon" viewBox="0 0 1024 1024" version="1.1" xmlns="http://www.w3.org/2000/svg" p-id="7981" xmlns:xlink="http://www.w3.org/1999/xlink" width="200" height="200"><path d="M112 896a48 48 0 0 1-48.064-47.872v-672a48 48 0 0 1 96 0v624.064h752a48 48 0 1 1 0 96z m375.04-246.464a715.2 715.2 0 0 1-52.736-171.648 838.4 838.4 0 0 0-25.6-98.496c-10.56-28.096-18.56-32.832-19.2-33.216h-0.64c-25.6 0-54.656 45.12-76.8 117.44a857.6 857.6 0 0 0-29.376 144.832 48 48 0 1 1-95.552-9.536 967.808 967.808 0 0 1 32.704-161.792c37.504-123.968 94.4-186.88 169.024-186.88a111.68 111.68 0 0 1 102.976 79.936 688.064 688.064 0 0 1 36.032 127.04c26.56 120.192 48.64 198.72 112 198.72 45.696 0 61.376-54.72 81.472-185.6a715.392 715.392 0 0 1 42.368-177.088 156.16 156.16 0 0 1 148.096-104.192 48.064 48.064 0 1 1 0 96c-55.872 0-73.856 58.816-95.552 199.744a702.208 702.208 0 0 1-39.232 167.68 144.384 144.384 0 0 1-137.216 99.52 166.4 166.4 0 0 1-152.768-102.528z" fill="#1296db" p-id="7982"></path></svg>