<?xml version="1.0" standalone="no"?><!DOCTYPE svg PUBLIC "-//W3C//DTD SVG 1.1//EN" "http://www.w3.org/Graphics/SVG/1.1/DTD/svg11.dtd"><svg t="1784271372934" class="icon" viewBox="0 0 1024 1024" version="1.1" xmlns="http://www.w3.org/2000/svg" p-id="9505" xmlns:xlink="http://www.w3.org/1999/xlink" width="200" height="200"><path d="M512 800c220.912 0 400-128.944 400-288H112c0 159.056 179.088 288 400 288z" fill="#FFB2B2" p-id="9506"></path><path d="M512 832c247.424 0 448-200.576 448-448H64c0 247.424 200.576 448 448 448zM133.312 448h757.376C860.224 629.6 702.272 768 512 768S163.776 629.6 133.312 448z" fill="#FF0B0B" p-id="9507"></path><path d="M640 896H384v-128h-64v192h384V768h-64zM736 416c0-106.032-85.968-192-192-192-122 0-288 90.768-288 192v32h480v-32z m-403.456-32c35.168-47.84 137.024-96 211.456-96 59.648 0 109.76 40.8 123.968 96H332.544z" fill="#FF0B0B" p-id="9508"></path><path d="M659.2 345.6l192-144-38.4-51.2-192 144z" fill="#FF0B0B" p-id="9509"></path><path d="M816 128m-64 0a64 64 0 1 0 128 0 64 64 0 1 0-128 0Z" fill="#FF0B0B" p-id="9510"></path><path d="M880 208m-64 0a64 64 0 1 0 128 0 64 64 0 1 0-128 0Z" fill="#FF0B0B" p-id="9511"></path></svg>